<svg width="187" height="87" viewBox="0 0 187 87" fill="none" xmlns="http://www.w3.org/2000/svg">
<path fill-rule="evenodd" clip-rule="evenodd" d="M79.7744 20.0586C80.0869 20.2279 80.2432 20.5664 80.2432 21.0742C80.2432 22.0247 79.6442 22.5 78.4463 22.5H69.3838V23.9062H78.4463C79.4098 23.9062 80.1846 23.6849 80.7705 23.2422C81.3564 22.7995 81.6494 22.0768 81.6494 21.0742C81.6494 19.2904 80.5817 18.3984 78.4463 18.3984H69.3838V19.8047H78.4463C79.0322 19.8047 79.4749 19.8893 79.7744 20.0586ZM67.1963 32.3438H68.6025V9.84375H78.4463C78.9671 9.84375 79.3968 9.97396 79.7354 10.2344C80.0739 10.4818 80.2432 10.8268 80.2432 11.2695C80.2432 12.3503 79.6442 12.8906 78.4463 12.8906H69.3838V14.2969H78.4463C79.4098 14.2969 80.1846 14.0625 80.7705 13.5938C81.3564 13.112 81.6494 12.3372 81.6494 11.2695C81.6494 10.4622 81.3369 9.79167 80.7119 9.25781C80.0869 8.71094 79.3317 8.4375 78.4463 8.4375H67.1963V32.3438ZM78.4463 15.7031H69.3838V17.1094H78.4463C78.7197 17.1094 78.9215 17.1029 79.0518 17.0898C80.3669 17.207 81.363 17.6302 82.04 18.3594C82.7171 19.0885 83.0557 19.9284 83.0557 20.8789C83.0557 22.2852 82.6064 23.3789 81.708 24.1602C80.8226 24.9284 79.7354 25.3125 78.4463 25.3125H69.3838V26.7188H78.4463C80.113 26.7188 81.5322 26.1914 82.7041 25.1367C83.876 24.069 84.4619 22.6497 84.4619 20.8789C84.4619 18.6393 83.4398 17.1549 81.3955 16.4258C82.333 15.944 83.0752 15.2604 83.6221 14.375C84.182 13.4896 84.4619 12.4544 84.4619 11.2695C84.4619 9.75911 83.8564 8.44401 82.6455 7.32422C81.4476 6.19141 80.0479 5.625 78.4463 5.625H64.3838V32.3438H65.79V7.03125H78.4463C79.6572 7.03125 80.7249 7.45443 81.6494 8.30078C82.5869 9.14714 83.0557 10.1367 83.0557 11.2695C83.0557 12.6758 82.6064 13.7695 81.708 14.5508C80.8226 15.319 79.7354 15.7031 78.4463 15.7031ZM85.3408 16.2109C86.6299 14.7396 87.2744 13.0924 87.2744 11.2695C87.2744 9.77214 86.8708 8.3724 86.0635 7.07031C85.2562 5.75521 84.1689 4.72005 82.8018 3.96484C81.4476 3.19661 79.9958 2.8125 78.4463 2.8125H61.5713V32.3438H62.9775V4.21875H78.4463C80.4255 4.21875 82.1572 4.92188 83.6416 6.32812C85.126 7.72135 85.8682 9.36849 85.8682 11.2695C85.8682 13.2487 85.1455 14.9154 83.7002 16.2695C84.3773 16.7513 84.9046 17.4544 85.2822 18.3789C85.6729 19.2904 85.8682 20.1237 85.8682 20.8789C85.8682 22.9883 85.139 24.7266 83.6807 26.0938C82.2223 27.4479 80.4775 28.125 78.4463 28.125H69.3838V29.5312H78.4463C80.0088 29.5312 81.4606 29.1667 82.8018 28.4375C84.1559 27.6953 85.2367 26.6602 86.0439 25.332C86.8643 23.9909 87.2744 22.5065 87.2744 20.8789C87.2744 19.1992 86.6299 17.6432 85.3408 16.2109ZM88.6807 11.2695C88.6807 13.0664 88.1012 14.7396 86.9424 16.2891C87.5153 16.9661 87.945 17.7474 88.2314 18.6328C88.5309 19.5052 88.6807 20.2539 88.6807 20.8789C88.6807 22.2852 88.4007 23.6133 87.8408 24.8633C87.2939 26.1133 86.5583 27.181 85.6338 28.0664C84.7093 28.9518 83.6221 29.6549 82.3721 30.1758C81.1221 30.6836 79.8135 30.9375 78.4463 30.9375H69.3838V32.3438H78.4463C80.0218 32.3438 81.5127 32.0768 82.9189 31.543C84.3252 31.0091 85.5557 30.2604 86.6104 29.2969C87.6781 28.3333 88.5244 27.1289 89.1494 25.6836C89.7744 24.2253 90.0869 22.6237 90.0869 20.8789C90.0869 19.3294 89.5465 17.806 88.4658 16.3086C89.5465 14.8633 90.0869 13.1836 90.0869 11.2695C90.0869 9.26432 89.5531 7.39583 88.4854 5.66406C87.4307 3.91927 86.0049 2.53906 84.208 1.52344C82.4242 0.507812 80.5036 0 78.4463 0H58.7588V32.3438H60.165V1.40625H78.4463C80.2562 1.40625 81.9489 1.85547 83.5244 2.75391C85.0999 3.63932 86.3499 4.84375 87.2744 6.36719C88.2119 7.8776 88.6807 9.51172 88.6807 11.2695ZM100.18 11.25H99.125V32.3438H100.18V11.25ZM98.0703 11.25H97.0156V32.3438H98.0703V11.25ZM95.9609 11.25H94.9062V32.3438H95.9609V11.25ZM93.8516 11.25H92.7969V32.3438H93.8516V11.25ZM107.724 17.0947H106.669V32.3438H107.724V17.0947ZM102.45 11.25V12.3047H118.271V11.25H102.45ZM102.45 13.3594V14.4141H118.271V13.3594H102.45ZM102.45 15.4688V16.5234H118.271V15.4688H102.45ZM114.052 17.0947H112.997V32.3438H114.052V17.0947ZM111.942 17.0947H110.888V32.3438H111.942V17.0947ZM109.833 17.0947H108.778V32.3438H109.833V17.0947ZM128.627 22.3096H130.297C132.064 22.3096 133.393 22.627 134.281 23.2617C135.18 23.8867 135.629 24.7852 135.629 25.957C135.629 27.041 135.082 27.9346 133.988 28.6377C132.904 29.3408 131.332 29.6924 129.271 29.6924C127.875 29.6924 126.571 29.5117 125.36 29.1504C124.149 28.7891 123.144 28.2812 122.343 27.627L121.522 28.2861C122.421 29.0674 123.544 29.6729 124.892 30.1025C126.249 30.5322 127.709 30.7471 129.271 30.7471C131.615 30.7471 133.437 30.293 134.735 29.3848C136.034 28.4668 136.684 27.3242 136.684 25.957C136.684 24.4922 136.127 23.3447 135.014 22.5146C133.91 21.6748 132.318 21.2549 130.238 21.2549H128.627C126.859 21.2549 125.526 20.9424 124.628 20.3174C123.739 19.6826 123.295 18.7793 123.295 17.6074C123.295 16.5234 123.837 15.6299 124.921 14.9268C126.015 14.2236 127.592 13.8721 129.652 13.8721C131.049 13.8721 132.353 14.0527 133.563 14.4141C134.774 14.7754 135.78 15.2832 136.581 15.9375L137.401 15.2783C136.503 14.4971 135.375 13.8916 134.018 13.4619C132.67 13.0322 131.215 12.8174 129.652 12.8174C127.309 12.8174 125.487 13.2764 124.188 14.1943C122.89 15.1025 122.24 16.2402 122.24 17.6074C122.24 19.0723 122.792 20.2246 123.896 21.0645C124.999 21.8945 126.576 22.3096 128.627 22.3096ZM128.627 24.4189H130.297C131.488 24.4189 132.323 24.5361 132.802 24.7705C133.28 25.0049 133.52 25.4004 133.52 25.957C133.52 26.4355 133.178 26.8262 132.494 27.1289C131.811 27.4316 130.736 27.583 129.271 27.583C126.986 27.583 125.233 27.1631 124.013 26.3232L123.178 26.9678C123.871 27.5049 124.75 27.9199 125.814 28.2129C126.879 28.4961 128.031 28.6377 129.271 28.6377C131.039 28.6377 132.362 28.3887 133.241 27.8906C134.13 27.3828 134.574 26.7383 134.574 25.957C134.574 24.2285 133.129 23.3643 130.238 23.3643H128.627C126.244 23.3643 124.408 22.8467 123.119 21.8115C121.83 20.7764 121.186 19.375 121.186 17.6074C121.186 15.9375 121.938 14.5459 123.441 13.4326C124.945 12.3193 127.016 11.7627 129.652 11.7627C131.361 11.7627 132.963 12.0117 134.457 12.5098C135.951 12.998 137.196 13.6914 138.192 14.5898L139.042 13.96C137.948 12.9346 136.581 12.1387 134.94 11.5723C133.3 10.9961 131.537 10.708 129.652 10.708C128.158 10.708 126.801 10.8936 125.58 11.2646C124.359 11.626 123.354 12.124 122.562 12.7588C121.781 13.3838 121.181 14.1113 120.761 14.9414C120.341 15.7715 120.131 16.6602 120.131 17.6074C120.131 19.6777 120.868 21.333 122.343 22.5732C123.817 23.8037 125.912 24.4189 128.627 24.4189ZM128.627 20.2002H130.297C132.68 20.2002 134.516 20.7178 135.805 21.7529C137.094 22.7881 137.738 24.1895 137.738 25.957C137.738 27.627 136.986 29.0186 135.482 30.1318C133.979 31.2451 131.908 31.8018 129.271 31.8018C127.562 31.8018 125.961 31.5576 124.467 31.0693C122.973 30.5713 121.728 29.873 120.731 28.9746L119.882 29.6045C120.976 30.6299 122.343 31.4307 123.983 32.0068C125.624 32.5732 127.387 32.8564 129.271 32.8564C130.766 32.8564 132.123 32.6758 133.344 32.3145C134.564 31.9434 135.565 31.4453 136.347 30.8203C137.138 30.1855 137.743 29.4531 138.163 28.623C138.583 27.793 138.793 26.9043 138.793 25.957C138.793 23.8867 138.056 22.2363 136.581 21.0059C135.106 19.7656 133.012 19.1455 130.297 19.1455H128.627C127.436 19.1455 126.601 19.0283 126.122 18.7939C125.644 18.5596 125.404 18.1641 125.404 17.6074C125.404 17.1289 125.746 16.7383 126.43 16.4355C127.113 16.1328 128.188 15.9814 129.652 15.9814C131.938 15.9814 133.69 16.4014 134.911 17.2412L135.746 16.5967C135.053 16.0596 134.174 15.6494 133.109 15.3662C132.045 15.0732 130.893 14.9268 129.652 14.9268C127.885 14.9268 126.557 15.1807 125.668 15.6885C124.789 16.1865 124.35 16.8262 124.35 17.6074C124.35 19.3359 125.775 20.2002 128.627 20.2002ZM157.865 31.1437H146.825V32.3438H159.585L154.505 18.3837L155.865 17.6237C158.105 16.3704 159.225 14.4104 159.225 11.7437C159.225 9.39708 158.332 7.58375 156.545 6.30375C154.758 4.99708 152.105 4.34375 148.585 4.34375H143.705V32.3438H144.905V5.54375H148.585C154.878 5.54375 158.025 7.61042 158.025 11.7437C158.025 13.9571 157.105 15.5704 155.265 16.5837L153.025 17.8637L157.865 31.1437ZM184.897 31.1437H169.137V32.3037L186.097 32.3438V4.30375L184.897 4.34375L175.897 23.6237L166.897 4.30375H165.697V32.3037L166.897 32.3438V7.14375L175.897 26.4638L184.897 7.18375V31.1437ZM80 47.6891C80.0146 58.0023 75.7856 67.8993 68.2421 75.206L68.2428 75.2043C64.5667 78.8389 60.1745 81.7275 55.3243 83.6993C50.4736 85.6714 45.2637 86.6875 40.0004 86.6875C34.7371 86.6875 29.5269 85.6714 24.6766 83.6993C19.8264 81.7275 15.434 78.8389 11.758 75.2043C4.22682 67.8898 0 57.9981 0 47.6877C0 37.377 4.22682 27.4851 11.758 20.1707C15.4003 16.5727 19.7447 13.7058 24.5408 11.7356C29.3369 9.76532 34.4897 8.73058 39.7022 8.69103C39.7125 8.69073 39.7229 8.69004 39.7334 8.68935C39.7474 8.68843 39.7615 8.6875 39.7753 8.6875H39.8485H39.9996C40.0904 8.68768 40.1811 8.69252 40.2711 8.70197C42.4259 8.83811 44.4525 9.73713 45.9626 11.2265C47.4726 12.716 48.3599 14.6909 48.4536 16.7726C48.5472 18.8542 47.8411 20.8959 46.4704 22.506C45.0998 24.1161 43.1617 25.1813 41.0271 25.4972C40.8101 25.5557 40.5862 25.5856 40.3611 25.5862C37.4351 25.5892 34.5394 26.1564 31.8439 27.2544C29.1483 28.3524 26.7074 29.9592 24.6644 31.9802C20.4598 36.0605 18.0997 41.5807 18.0997 47.3346C18.0997 53.0886 20.4598 58.6089 24.6644 62.689C26.7058 64.7127 29.1466 66.3209 31.8429 67.4192C34.5392 68.5175 37.4362 69.0831 40.3626 69.0831C43.2894 69.0831 46.1865 68.5175 48.8827 67.4192C51.579 66.3209 54.0199 64.7127 56.0612 62.689C60.2715 58.6124 62.6326 53.09 62.626 47.3346C62.6359 46.8633 62.548 46.3948 62.3677 45.9563C62.1876 45.5182 61.9184 45.1189 61.5766 44.7824C61.2345 44.4456 60.8262 44.178 60.3758 43.9955C59.9253 43.813 59.4413 43.7189 58.9528 43.7189C58.4643 43.7189 57.9803 43.813 57.5299 43.9955C57.0794 44.178 56.6711 44.4456 56.329 44.7824C55.9873 45.1189 55.718 45.5182 55.5379 45.9563C55.3576 46.3948 55.2697 46.8633 55.2796 47.3346C55.2796 47.4038 55.2749 47.4716 55.269 47.5394C55.2749 47.6072 55.2796 47.6736 55.2796 47.7442C55.2796 50.6092 54.4004 53.4102 52.7524 55.7937C51.1044 58.1771 48.7616 60.0359 46.02 61.136C43.2784 62.2361 40.2602 62.5281 37.3469 61.9752C34.4333 61.422 31.7548 60.0486 29.6494 58.0285C27.5439 56.008 26.1058 53.4314 25.5163 50.6233C24.927 47.8151 25.2127 44.9014 26.3376 42.2499C27.4625 39.5983 29.3761 37.3276 31.837 35.7243C34.2978 34.121 37.1958 33.2568 40.165 33.2409C40.4969 33.2371 40.8262 33.2968 41.1339 33.4166C41.4416 33.5365 41.7215 33.7141 41.9575 33.9391C42.1935 34.1641 42.3812 34.4321 42.5089 34.7276C42.637 35.023 42.7028 35.34 42.7028 35.6602C42.7028 35.9804 42.637 36.2974 42.5089 36.5928C42.3812 36.8883 42.1935 37.1563 41.9575 37.3813C41.7215 37.6063 41.4416 37.7839 41.1339 37.9038C40.8262 38.0236 40.4969 38.0834 40.165 38.0795C38.1643 38.0795 36.2085 38.6531 34.5461 39.7273C32.8836 40.8016 31.5894 42.3281 30.8275 44.1134C30.0657 45.8984 29.8705 47.8617 30.2669 49.7541C30.6633 51.6464 31.6333 53.3823 33.0538 54.7419C34.4744 56.1015 36.2815 57.023 38.2459 57.3901C40.21 57.757 42.2433 57.5526 44.087 56.803C45.9307 56.0532 47.5022 54.7921 48.6017 53.1793C49.7016 51.5663 50.2801 49.6746 50.2636 47.7442C50.2636 47.675 50.2684 47.6072 50.2742 47.5394C50.2684 47.4716 50.2636 47.4052 50.2636 47.3346C50.253 46.2275 50.47 45.1288 50.9017 44.1028C51.3339 43.077 51.972 42.1438 52.7799 41.3572C53.5877 40.5706 54.5489 39.9462 55.6082 39.5201C56.6674 39.094 57.8035 38.8746 58.9513 38.8746C60.0991 38.8746 61.2352 39.094 62.2945 39.5201C63.3537 39.9462 64.3149 40.5706 65.1228 41.3572C65.9307 42.1438 66.5688 43.077 67.0009 44.1028C67.4327 45.1288 67.6497 46.2275 67.6391 47.3346C67.6493 54.3645 64.7672 61.1106 59.626 66.0914C57.1182 68.5701 54.1219 70.5398 50.8139 71.8845C47.5055 73.2293 43.9516 73.922 40.3619 73.922C36.7721 73.922 33.2183 73.2293 29.91 71.8845C26.6016 70.5398 23.6054 68.5701 21.0977 66.0914C15.9645 61.1053 13.0835 54.3628 13.0835 47.3346C13.0835 40.3066 15.9645 33.5639 21.0977 28.5779C25.9583 23.7785 32.5536 20.9781 39.5046 20.7621C39.5942 20.7526 39.6846 20.7478 39.775 20.7476C40.7508 20.7291 41.6805 20.3435 42.3659 19.6729C43.0512 19.0024 43.4379 18.1001 43.4434 17.1584C43.4493 16.2166 43.0735 15.31 42.3962 14.6319C41.719 13.9537 40.794 13.5576 39.8185 13.5281C35.2497 13.555 30.7319 14.4567 26.527 16.1809C22.3222 17.9051 18.5138 20.4176 15.3228 23.5727C8.72003 29.9814 5.01392 38.6508 5.01392 47.6877C5.01392 56.7243 8.72003 65.3938 15.3228 71.8023C18.5325 74.9818 22.3696 77.5089 26.6079 79.2346C30.8461 80.96 35.3996 81.849 39.9996 81.849C44.5996 81.849 49.1531 80.96 53.3913 79.2346C57.6297 77.5089 61.4668 74.9818 64.6764 71.8023C71.2881 65.4001 74.996 56.7271 74.9854 47.6891C74.9935 47.0525 75.2609 46.4446 75.7304 45.9973C76.1998 45.5496 76.8328 45.299 77.4929 45.299C78.1526 45.299 78.7856 45.5496 79.255 45.9973C79.7244 46.4446 79.9919 47.0525 80 47.6891Z" fill="url(#paint0_linear)"/>
<defs>
<linearGradient id="paint0_linear" x1="0" y1="43.3438" x2="186.097" y2="43.3438" gradientUnits="userSpaceOnUse">
<stop stop-color="#FFA17F"/>
<stop offset="1" stop-color="#00223E"/>
</linearGradient>
</defs>
</svg>
